<?xml version="1.0" encoding="UTF-8"?>
<svg version="1.1" xmlns="http://www.w3.org/2000/svg" width="256" height="256">
<path d="M0 0 C84.48 0 168.96 0 256 0 C256 84.48 256 168.96 256 256 C171.52 256 87.04 256 0 256 C0 171.52 0 87.04 0 0 Z " fill="#292162" transform="translate(0,0)"/>
<path d="M0 0 C1.05990143 -0.0112793 2.11980286 -0.02255859 3.21182251 -0.03417969 C4.94811417 -0.0220343 4.94811417 -0.0220343 6.71948242 -0.00964355 C8.55414566 -0.02015747 8.55414566 -0.02015747 10.4258728 -0.03088379 C13.77738497 -0.04547326 17.12790947 -0.04205354 20.4793663 -0.02936745 C23.98755973 -0.01923584 27.49571115 -0.02863356 31.00390625 -0.03491211 C36.89517794 -0.04218809 42.78624901 -0.03260228 48.67749023 -0.0135498 C55.48728799 0.00821908 62.29660671 0.00116766 69.10639286 -0.02085543 C74.95451233 -0.03901101 80.80248764 -0.04156705 86.65062618 -0.03110075 C90.1428659 -0.02486659 93.63488049 -0.02402777 97.12710571 -0.0372467 C101.02006634 -0.05095337 104.91249099 -0.03195279 108.80541992 -0.00964355 C109.96294769 -0.01774048 111.12047546 -0.0258374 112.31307983 -0.03417969 C113.90293198 -0.01726074 113.90293198 -0.01726074 115.52490234 0 C116.90532967 0.00226215 116.90532967 0.00226215 118.31364441 0.00457001 C121.55594288 0.67104079 122.75150965 1.92377281 124.76245117 4.50793457 C125.16232134 7.27421004 125.32013834 9.64455329 125.29589844 12.41003418 C125.30451401 13.20237961 125.31312958 13.99472504 125.32200623 14.81108093 C125.34469136 17.42781328 125.33792271 20.04347681 125.32885742 22.66027832 C125.33409218 24.48104674 125.34036811 26.30181244 125.34764099 28.12257385 C125.35805009 31.93825034 125.35347692 35.75355402 125.33886719 39.56921387 C125.32168488 44.45661482 125.34516468 49.34283955 125.38035679 54.23010921 C125.40232942 57.99027787 125.40088957 61.75016508 125.39259148 65.51037788 C125.39177175 67.31209159 125.39863917 69.11382592 125.4133625 70.91547966 C125.43080511 73.43653256 125.41627015 75.95547215 125.39355469 78.47644043 C125.41109299 79.59019043 125.41109299 79.59019043 125.4289856 80.72644043 C125.36418133 84.2655065 124.80874294 86.43137841 122.97167969 89.46946716 C118.05815422 92.59048565 113.49338782 92.20539617 107.78369141 92.15490723 C106.57019012 92.16366882 105.35668884 92.17243042 104.10641479 92.18145752 C100.78575068 92.19967506 97.46664733 92.19543425 94.1460712 92.17956209 C90.66857256 92.16688401 87.19113962 92.1786482 83.71363831 92.18649292 C77.87537692 92.19558281 72.03743206 92.18361802 66.19921875 92.15979004 C59.45122197 92.1325668 52.70398026 92.14140345 45.9560017 92.16892207 C40.15879304 92.19161613 34.3618116 92.19481232 28.56457287 92.18172872 C25.10360114 92.17393728 21.64298431 92.17288383 18.18203545 92.18941116 C14.32499735 92.20654447 10.46880451 92.18279532 6.61181641 92.15490723 C4.89190742 92.17008896 4.89190742 92.17008896 3.13725281 92.18557739 C-4.47301505 92.08339284 -4.47301505 92.08339284 -7.94578552 89.46946716 C-9.57027085 85.74512678 -9.79867565 82.46992121 -9.75512695 78.47644043 C-9.76213623 77.68234268 -9.76914551 76.88824493 -9.77636719 76.07008362 C-9.79392488 73.45395601 -9.78233399 70.83891628 -9.76879883 68.22277832 C-9.77149413 66.40104465 -9.77537686 64.57931237 -9.78039551 62.75758362 C-9.78628729 58.94367751 -9.77773698 55.13014662 -9.7590332 51.31628418 C-9.73622752 46.42782499 -9.7493788 41.54024347 -9.77332306 36.65181637 C-9.78777591 32.8917021 -9.78317771 29.13179602 -9.77281189 25.37167549 C-9.77014402 23.56914732 -9.77341649 21.76660024 -9.7827301 19.96409416 C-9.79288924 17.44556453 -9.77740553 14.9284578 -9.75512695 12.41003418 C-9.76322388 11.66550995 -9.7713208 10.92098572 -9.77966309 10.15390015 C-9.72613222 6.88758542 -9.56771363 4.93231776 -7.53314972 2.31715488 C-4.76984435 0.13932501 -3.48098428 0.00570441 0 0 Z " fill="#2C1F60" transform="translate(70.237548828125,83.4920654296875)"/>
<path d="M0 0 C1.05990143 -0.0112793 2.11980286 -0.02255859 3.21182251 -0.03417969 C4.94811417 -0.0220343 4.94811417 -0.0220343 6.71948242 -0.00964355 C8.55414566 -0.02015747 8.55414566 -0.02015747 10.4258728 -0.03088379 C13.77738497 -0.04547326 17.12790947 -0.04205354 20.4793663 -0.02936745 C23.98755973 -0.01923584 27.49571115 -0.02863356 31.00390625 -0.03491211 C36.89517794 -0.04218809 42.78624901 -0.03260228 48.67749023 -0.0135498 C55.48728799 0.00821908 62.29660671 0.00116766 69.10639286 -0.02085543 C74.95451233 -0.03901101 80.80248764 -0.04156705 86.65062618 -0.03110075 C90.1428659 -0.02486659 93.63488049 -0.02402777 97.12710571 -0.0372467 C101.02006634 -0.05095337 104.91249099 -0.03195279 108.80541992 -0.00964355 C109.96294769 -0.01774048 111.12047546 -0.0258374 112.31307983 -0.03417969 C113.90293198 -0.01726074 113.90293198 -0.01726074 115.52490234 0 C116.90532967 0.00226215 116.90532967 0.00226215 118.31364441 0.00457001 C121.55594288 0.67104079 122.75150965 1.92377281 124.76245117 4.50793457 C125.16232134 7.27421004 125.32013834 9.64455329 125.29589844 12.41003418 C125.30451401 13.20237961 125.31312958 13.99472504 125.32200623 14.81108093 C125.34469136 17.42781328 125.33792271 20.04347681 125.32885742 22.66027832 C125.33409218 24.48104674 125.34036811 26.30181244 125.34764099 28.12257385 C125.35805009 31.93825034 125.35347692 35.75355402 125.33886719 39.56921387 C125.32168488 44.45661482 125.34516468 49.34283955 125.38035679 54.23010921 C125.40232942 57.99027787 125.40088957 61.75016508 125.39259148 65.51037788 C125.39177175 67.31209159 125.39863917 69.11382592 125.4133625 70.91547966 C125.43080511 73.43653256 125.41627015 75.95547215 125.39355469 78.47644043 C125.41109299 79.59019043 125.41109299 79.59019043 125.4289856 80.72644043 C125.36418133 84.2655065 124.80874294 86.43137841 122.97167969 89.46946716 C118.05815422 92.59048565 113.49338782 92.20539617 107.78369141 92.15490723 C106.57019012 92.16366882 105.35668884 92.17243042 104.10641479 92.18145752 C100.78575068 92.19967506 97.46664733 92.19543425 94.1460712 92.17956209 C90.66857256 92.16688401 87.19113962 92.1786482 83.71363831 92.18649292 C77.87537692 92.19558281 72.03743206 92.18361802 66.19921875 92.15979004 C59.45122197 92.1325668 52.70398026 92.14140345 45.9560017 92.16892207 C40.15879304 92.19161613 34.3618116 92.19481232 28.56457287 92.18172872 C25.10360114 92.17393728 21.64298431 92.17288383 18.18203545 92.18941116 C14.32499735 92.20654447 10.46880451 92.18279532 6.61181641 92.15490723 C4.89190742 92.17008896 4.89190742 92.17008896 3.13725281 92.18557739 C-4.47301505 92.08339284 -4.47301505 92.08339284 -7.94578552 89.46946716 C-9.57027085 85.74512678 -9.79867565 82.46992121 -9.75512695 78.47644043 C-9.76213623 77.68234268 -9.76914551 76.88824493 -9.77636719 76.07008362 C-9.79392488 73.45395601 -9.78233399 70.83891628 -9.76879883 68.22277832 C-9.77149413 66.40104465 -9.77537686 64.57931237 -9.78039551 62.75758362 C-9.78628729 58.94367751 -9.77773698 55.13014662 -9.7590332 51.31628418 C-9.73622752 46.42782499 -9.7493788 41.54024347 -9.77332306 36.65181637 C-9.78777591 32.8917021 -9.78317771 29.13179602 -9.77281189 25.37167549 C-9.77014402 23.56914732 -9.77341649 21.76660024 -9.7827301 19.96409416 C-9.79288924 17.44556453 -9.77740553 14.9284578 -9.75512695 12.41003418 C-9.76322388 11.66550995 -9.7713208 10.92098572 -9.77966309 10.15390015 C-9.72613222 6.88758542 -9.56771363 4.93231776 -7.53314972 2.31715488 C-4.76984435 0.13932501 -3.48098428 0.00570441 0 0 Z M-7.23754883 20.50793457 C-7.29942383 31.33605957 -7.36129883 42.16418457 -7.42504883 53.32043457 C-7.45236084 56.73878662 -7.47967285 60.15713867 -7.5078125 63.67907715 C-7.5165716 66.37853644 -7.52421689 69.07799967 -7.53051758 71.77746582 C-7.5383577 72.47949631 -7.54619781 73.18152679 -7.55427551 73.90483093 C-7.57621698 75.97302435 -7.5792676 78.04047238 -7.578125 80.10876465 C-7.58478683 81.27458572 -7.59144867 82.4404068 -7.59831238 83.64155579 C-7.47859983 86.45765689 -7.47859983 86.45765689 -6.03050709 88.16327381 C-3.64164892 89.95484025 -2.16147057 89.88518233 0.81054688 89.8888855 C1.85369049 89.89734497 2.89683411 89.90580444 3.97158813 89.91452026 C5.11558075 89.90844757 6.25957336 89.90237488 7.43823242 89.89611816 C8.64329437 89.90137512 9.84835632 89.90663208 11.0899353 89.91204834 C14.39583663 89.92300069 17.70117575 89.92041848 21.00704575 89.91091108 C24.46499137 89.90332096 27.92291282 89.91035829 31.38085938 89.91506958 C37.18811359 89.92052904 42.99525339 89.9133306 48.80249023 89.89904785 C55.51849061 89.88272087 62.23421777 89.88800925 68.95021152 89.90452707 C74.71420157 89.91813659 80.47810933 89.92006424 86.24211025 89.91221106 C89.68567318 89.90753156 93.12910765 89.90691716 96.57266235 89.91682053 C100.4107731 89.92708737 104.24857728 89.91286145 108.08666992 89.89611816 C109.80265884 89.9052272 109.80265884 89.9052272 111.55331421 89.91452026 C112.59645782 89.90606079 113.63960144 89.89760132 114.71435547 89.8888855 C115.62211227 89.88775442 116.52986908 89.88662334 117.46513367 89.88545799 C120.23149783 89.43085506 121.12498631 88.75355687 122.76245117 86.50793457 C123.19949364 83.53884746 123.19949364 83.53884746 123.10302734 80.10876465 C123.10338895 79.45419879 123.10375055 78.79963293 123.10412312 78.12523174 C123.10188609 76.00899729 123.07905197 73.89355822 123.05541992 71.77746582 C123.05239868 70.48304565 123.04937744 69.18862549 123.04626465 67.85498047 C123.03054401 63.01005097 122.98866025 58.16523494 122.94995117 53.32043457 C122.88807617 42.49230957 122.82620117 31.66418457 122.76245117 20.50793457 C79.86245117 20.50793457 36.96245117 20.50793457 -7.23754883 20.50793457 Z " fill="#F4F5F7" transform="translate(70.237548828125,83.4920654296875)"/>
<path d="M0 0 C3.92683725 0.37758051 5.42346736 1.65223399 8.25 4.3125 C8.91 2.9925 9.57 1.6725 10.25 0.3125 C13.625 0.1875 13.625 0.1875 17.25 0.3125 C19.25 2.3125 19.25 2.3125 19.25 5.3125 C20.03375 5.43625 20.8175 5.56 21.625 5.6875 C24.25 6.3125 24.25 6.3125 26.25 8.3125 C26.25 9.6325 26.25 10.9525 26.25 12.3125 C26.889375 12.621875 27.52875 12.93125 28.1875 13.25 C30.25 14.3125 30.25 14.3125 31.25 15.3125 C31.43061605 18.26453606 31.52817579 21.17082963 31.5625 24.125 C31.59150391 24.94548828 31.62050781 25.76597656 31.65039062 26.61132812 C31.71503167 32.7422826 31.71503167 32.7422826 29.28125 35.7265625 C28.27578125 36.51160156 28.27578125 36.51160156 27.25 37.3125 C26.981875 38.158125 26.71375 39.00375 26.4375 39.875 C24.66466448 43.51397817 21.92221332 43.93542 18.25 45.3125 C17.59 45.9725 16.93 46.6325 16.25 47.3125 C13.8125 47.625 13.8125 47.625 11.25 47.3125 C9.4375 45.8125 9.4375 45.8125 8.25 44.3125 C5.5594472 45.53257944 5.5594472 45.53257944 3.25 47.3125 C0.875 47.5625 0.875 47.5625 -1.75 47.3125 C-3.25 45.9375 -3.25 45.9375 -4.75 44.3125 C-6.40816784 43.62496699 -8.07459336 42.95688717 -9.75 42.3125 C-10.41 41.6525 -11.07 40.9925 -11.75 40.3125 C-11.75 38.9925 -11.75 37.6725 -11.75 36.3125 C-13.07 35.9825 -14.39 35.6525 -15.75 35.3125 C-17.63615473 28.54453303 -18.44189435 22.23904733 -16.75 15.3125 C-15.30078125 13.6875 -15.30078125 13.6875 -13.75 12.3125 C-12.71838392 10.32862292 -11.71476382 8.32973344 -10.75 6.3125 C-9.75 5.3125 -9.75 5.3125 -7.1875 5.25 C-5.9809375 5.2809375 -5.9809375 5.2809375 -4.75 5.3125 C-4.605625 4.673125 -4.46125 4.03375 -4.3125 3.375 C-3.47079598 0.28875194 -3.28588181 0.37339566 0 0 Z " fill="#38316B" transform="translate(120.75,114.6875)"/>
<path d="M0 0 C3.5 0.25 3.5 0.25 5.5 2.25 C5.5 3.24 5.5 4.23 5.5 5.25 C6.28375 5.37375 7.0675 5.4975 7.875 5.625 C10.5 6.25 10.5 6.25 12.5 8.25 C12.5 9.57 12.5 10.89 12.5 12.25 C13.139375 12.559375 13.77875 12.86875 14.4375 13.1875 C16.5 14.25 16.5 14.25 17.5 15.25 C17.68061605 18.20203606 17.77817579 21.10832963 17.8125 24.0625 C17.84150391 24.88298828 17.87050781 25.70347656 17.90039062 26.54882812 C17.96503167 32.6797826 17.96503167 32.6797826 15.53125 35.6640625 C14.8609375 36.18742187 14.190625 36.71078125 13.5 37.25 C13.231875 38.095625 12.96375 38.94125 12.6875 39.8125 C10.91466448 43.45147817 8.17221332 43.87292 4.5 45.25 C3.84 45.91 3.18 46.57 2.5 47.25 C-0.26572542 47.60458018 -1.83464771 47.71984593 -4.1484375 46.0859375 C-6.03632761 43.5214625 -5.79849149 41.70725881 -5.6875 38.5625 C-5.66042969 37.56863281 -5.63335937 36.57476562 -5.60546875 35.55078125 C-5.57066406 34.79152344 -5.53585938 34.03226563 -5.5 33.25 C-5.17 33.25 -4.84 33.25 -4.5 33.25 C-4.43941406 33.96027344 -4.37882813 34.67054688 -4.31640625 35.40234375 C-4.23261719 36.32144531 -4.14882812 37.24054688 -4.0625 38.1875 C-3.98128906 39.10402344 -3.90007812 40.02054688 -3.81640625 40.96484375 C-3.73955024 43.21159732 -3.73955024 43.21159732 -2.5 44.25 C-0.83382885 44.29063832 0.83388095 44.292721 2.5 44.25 C3.70339489 41.22295906 3.70339489 41.22295906 3.375 37.75 C3.5 34.25 3.5 34.25 4.71484375 32.54296875 C7.01959618 30.87366229 8.37287126 30.94012484 11.1875 31.0625 C11.99574219 31.08957031 12.80398437 31.11664063 13.63671875 31.14453125 C14.25160156 31.17933594 14.86648437 31.21414062 15.5 31.25 C15.17 30.59 14.84 29.93 14.5 29.25 C13.32244141 29.37181641 13.32244141 29.37181641 12.12109375 29.49609375 C3.64231589 30.00586076 3.64231589 30.00586076 0.14453125 27.69140625 C-1.55193565 25.95296491 -3.07568539 24.21595538 -4.5 22.25 C-1.5 22.25 -1.5 22.25 0.3046875 23.7109375 C3.14609491 25.70295622 5.18534716 25.71442653 8.625 25.875 C14.33651226 26.16825613 14.33651226 26.16825613 16.5 27.25 C15.84 25.93 15.18 24.61 14.5 23.25 C13.08847656 23.37181641 13.08847656 23.37181641 11.6484375 23.49609375 C2.05652466 23.98264005 2.05652466 23.98264005 -1.765625 22.18359375 C-5.7379733 18.33658654 -5.87868828 14.30278644 -6 8.9375 C-5.78258555 0.41304183 -5.78258555 0.41304183 0 0 Z " fill="#D6D4DD" transform="translate(134.5,114.75)"/>
<path d="M0 0 C1.485 0.99 1.485 0.99 3 2 C5.36488773 2.30127892 5.36488773 2.30127892 8.04136658 2.25396729 C9.08306503 2.25960693 10.12476349 2.26524658 11.19802856 2.27105713 C12.34045013 2.26700867 13.4828717 2.26296021 14.65991211 2.25878906 C16.4650956 2.26404602 16.4650956 2.26404602 18.30674744 2.26940918 C21.608474 2.27671086 24.90995038 2.2749886 28.21166301 2.26865101 C31.66646714 2.26359008 35.12126052 2.26828283 38.57606506 2.27142334 C44.37909872 2.2750632 50.18208149 2.27026388 55.98510742 2.26074219 C62.69308363 2.2498627 69.40093821 2.25337941 76.10891145 2.264395 C81.86780842 2.27347343 87.62666878 2.27475028 93.38557059 2.26951766 C96.82522771 2.26640035 100.26482768 2.26598193 103.70448112 2.27259064 C107.53993321 2.27944481 111.37524931 2.2699422 115.21069336 2.25878906 C116.92128937 2.26486176 116.92128937 2.26486176 118.66644287 2.27105713 C120.23322029 2.26259766 120.23322029 2.26259766 121.83164978 2.25396729 C122.73848479 2.25321323 123.64531981 2.25245918 124.57963467 2.25168228 C127.1481041 1.98459936 128.78774955 1.2982492 131 0 C129.25 3.875 129.25 3.875 127 5 C125.3471066 5.10130803 123.69017207 5.13944572 122.03419495 5.14717102 C120.45892029 5.15790398 120.45892029 5.15790398 118.8518219 5.16885376 C117.69488327 5.17154266 116.53794464 5.17423157 115.34594727 5.17700195 C114.13127777 5.18357315 112.91660828 5.19014435 111.66513062 5.19691467 C108.32836439 5.21326847 104.99166159 5.22487562 101.65487027 5.2331202 C99.57134772 5.23826904 97.48782963 5.24434473 95.40431023 5.25063133 C88.88869389 5.26968078 82.3730889 5.28391408 75.85745007 5.2922433 C68.32975027 5.30202472 60.80234381 5.32836846 53.27474743 5.36874419 C47.45984377 5.3988665 41.6450244 5.41370833 35.83004421 5.41702431 C32.35508048 5.41937871 28.88043023 5.42838919 25.40555 5.45348549 C21.53141923 5.48101392 17.65767736 5.47694699 13.78344727 5.4699707 C12.62853287 5.48278076 11.47361847 5.49559082 10.28370667 5.50878906 C9.23070374 5.50184525 8.17770081 5.49490143 7.0927887 5.48774719 C6.17635873 5.49013555 5.25992876 5.4925239 4.31572819 5.49498463 C2 5 2 5 0.18170071 2.9695158 C-0.20826053 2.31957559 -0.59822176 1.66963537 -1 1 C-0.67 0.67 -0.34 0.34 0 0 Z " fill="#DDDBE4" transform="translate(63,170)"/>
<path d="M0 0 C2.5625 0.1875 2.5625 0.1875 4.5625 2.1875 C4.6875 5.3125 4.6875 5.3125 4.5625 8.1875 C3.9025 8.1875 3.2425 8.1875 2.5625 8.1875 C2.8925 9.1775 3.2225 10.1675 3.5625 11.1875 C4.5525 11.1875 5.5425 11.1875 6.5625 11.1875 C6.8925 10.1975 7.2225 9.2075 7.5625 8.1875 C6.9025 8.1875 6.2425 8.1875 5.5625 8.1875 C5.5625 7.1975 5.5625 6.2075 5.5625 5.1875 C7.2125 5.5175 8.8625 5.8475 10.5625 6.1875 C10.5625 7.8375 10.5625 9.4875 10.5625 11.1875 C13.0375 12.1775 13.0375 12.1775 15.5625 13.1875 C15.605221 14.85361905 15.60313832 16.52132885 15.5625 18.1875 C13.69998319 20.05001681 10.8121451 19.48964039 8.3125 19.5625 C4.1880551 19.49458927 1.9572715 19.38861001 -1.75 17.5 C-4.40721676 12.28398191 -4.00558823 6.9333067 -3.4375 1.1875 C-2.4375 0.1875 -2.4375 0.1875 0 0 Z " fill="#383169" transform="translate(134.4375,116.8125)"/>
<path d="M0 0 C3.125 0.25 3.125 0.25 4.80859375 1.34765625 C6.77337283 4.18696608 6.41358169 6.53441648 6.3125 9.9375 C6.28542969 11.11699219 6.25835937 12.29648438 6.23046875 13.51171875 C6.19566406 14.41535156 6.16085938 15.31898438 6.125 16.25 C5.465 16.25 4.805 16.25 4.125 16.25 C3.63 9.815 3.63 9.815 3.125 3.25 C1.475 3.25 -0.175 3.25 -1.875 3.25 C-1.545 5.56 -1.215 7.87 -0.875 10.25 C-1.535 10.25 -2.195 10.25 -2.875 10.25 C-3.205 9.59 -3.535 8.93 -3.875 8.25 C-5.525 8.25 -7.175 8.25 -8.875 8.25 C-9.205 9.57 -9.535 10.89 -9.875 12.25 C-8.885 12.91 -7.895 13.57 -6.875 14.25 C-7.205 15.24 -7.535 16.23 -7.875 17.25 C-8.535 16.59 -9.195 15.93 -9.875 15.25 C-11.195 15.25 -12.515 15.25 -13.875 15.25 C-14.12530977 17.66619823 -14.12530977 17.66619823 -13.875 20.25 C-12.885 20.91 -11.895 21.57 -10.875 22.25 C-12.525 22.25 -14.175 22.25 -15.875 22.25 C-15.60823796 24.23491642 -15.60823796 24.23491642 -14.875 26.25 C-13.885 26.58 -12.895 26.91 -11.875 27.25 C-11.875 27.91 -11.875 28.57 -11.875 29.25 C-12.865 29.25 -13.855 29.25 -14.875 29.25 C-14.215 30.9 -13.555 32.55 -12.875 34.25 C-10.70625748 33.74396008 -8.87532373 33.25016187 -6.875 32.25 C-7.205 33.57 -7.535 34.89 -7.875 36.25 C-8.865 36.25 -9.855 36.25 -10.875 36.25 C-10.215 37.57 -9.555 38.89 -8.875 40.25 C-7.225 40.25 -5.575 40.25 -3.875 40.25 C-3.545 39.59 -3.215 38.93 -2.875 38.25 C-2.215 38.25 -1.555 38.25 -0.875 38.25 C-1.205 40.23 -1.535 42.21 -1.875 44.25 C-0.20888095 44.292721 1.45882885 44.29063832 3.125 44.25 C4.78842837 42.58657163 4.48548097 40.4674291 4.6875 38.1875 C4.77128906 37.26839844 4.85507813 36.34929687 4.94140625 35.40234375 C5.03228516 34.33693359 5.03228516 34.33693359 5.125 33.25 C5.455 33.25 5.785 33.25 6.125 33.25 C6.20614106 35.02007714 6.26425505 36.79122098 6.3125 38.5625 C6.36470703 40.04169922 6.36470703 40.04169922 6.41796875 41.55078125 C6.125 44.25 6.125 44.25 4.76953125 46.08203125 C2.4241283 47.74776873 0.93483677 47.67147552 -1.875 47.25 C-3.375 45.875 -3.375 45.875 -4.875 44.25 C-6.53316784 43.56246699 -8.19959336 42.89438717 -9.875 42.25 C-10.535 41.59 -11.195 40.93 -11.875 40.25 C-11.875 38.93 -11.875 37.61 -11.875 36.25 C-13.195 35.92 -14.515 35.59 -15.875 35.25 C-17.76115473 28.48203303 -18.56689435 22.17654733 -16.875 15.25 C-15.42578125 13.625 -15.42578125 13.625 -13.875 12.25 C-12.84338392 10.26612292 -11.83976382 8.26723344 -10.875 6.25 C-9.875 5.25 -9.875 5.25 -7.3125 5.1875 C-6.1059375 5.2184375 -6.1059375 5.2184375 -4.875 5.25 C-4.730625 4.610625 -4.58625 3.97125 -4.4375 3.3125 C-3.57686874 0.15685203 -3.3902445 0.29480387 0 0 Z " fill="#C9C8D4" transform="translate(120.875,114.75)"/>
<path d="M0 0 C0.66 0 1.32 0 2 0 C2 0.66 2 1.32 2 2 C2.556875 1.649375 3.11375 1.29875 3.6875 0.9375 C6.62607953 -0.25381603 7.92776315 0.30176435 11 1 C13.67352183 1.09459388 16.32357583 1.04536312 19 1 C19.33 1.99 19.66 2.98 20 4 C19.09507812 4.07347656 19.09507812 4.07347656 18.171875 4.1484375 C17.37265625 4.22320312 16.5734375 4.29796875 15.75 4.375 C14.96109375 4.44460937 14.1721875 4.51421875 13.359375 4.5859375 C10.914123 5.01507113 9.15163097 5.78600638 7 7 C7 8.98 7 10.96 7 13 C5.68 13.33 4.36 13.66 3 14 C3 11.81160732 3.02780065 9.62005782 3.1875 7.4375 C2.95988959 4.4785647 2.16806159 3.89705389 0 2 C0 1.34 0 0.68 0 0 Z " fill="#40316A" transform="translate(130,142)"/>
<path d="M0 0 C3.5 0.25 3.5 0.25 5.5 2.25 C5.5 3.24 5.5 4.23 5.5 5.25 C7.15 5.58 8.8 5.91 10.5 6.25 C10.83 7.57 11.16 8.89 11.5 10.25 C10.84 9.59 10.18 8.93 9.5 8.25 C7.43125966 7.6074765 7.43125966 7.6074765 5.5 7.25 C5.5 8.24 5.5 9.23 5.5 10.25 C6.16 10.25 6.82 10.25 7.5 10.25 C7.17 11.57 6.84 12.89 6.5 14.25 C5.18 13.92 3.86 13.59 2.5 13.25 C2.5 12.26 2.5 11.27 2.5 10.25 C3.16 10.25 3.82 10.25 4.5 10.25 C3.84 7.94 3.18 5.63 2.5 3.25 C0.83388095 3.207279 -0.83382885 3.20936168 -2.5 3.25 C-4.31115956 5.06115956 -3.88199448 7.86278227 -4.0625 10.3125 C-4.14628906 11.41722656 -4.23007813 12.52195312 -4.31640625 13.66015625 C-4.37699219 14.51480469 -4.43757812 15.36945313 -4.5 16.25 C-4.83 16.25 -5.16 16.25 -5.5 16.25 C-5.55384521 13.95858714 -5.59272087 11.66681812 -5.625 9.375 C-5.64820313 8.09882812 -5.67140625 6.82265625 -5.6953125 5.5078125 C-5.41740359 0.87229196 -4.6044163 0.32888688 0 0 Z " fill="#D8D8E0" transform="translate(134.5,114.75)"/>
<path d="M0 0 C0.33 0.99 0.66 1.98 1 3 C-0.32 3.33 -1.64 3.66 -3 4 C-2.34 5.32 -1.68 6.64 -1 8 C0.65 8 2.3 8 4 8 C4.33 7.34 4.66 6.68 5 6 C5.66 6 6.32 6 7 6 C6.67 7.98 6.34 9.96 6 12 C7.66611905 12.042721 9.33382885 12.04063832 11 12 C12.66342837 10.33657163 12.36048097 8.2174291 12.5625 5.9375 C12.64628906 5.01839844 12.73007813 4.09929687 12.81640625 3.15234375 C12.90728516 2.08693359 12.90728516 2.08693359 13 1 C13.33 1 13.66 1 14 1 C14.08114106 2.77007714 14.13925505 4.54122098 14.1875 6.3125 C14.23970703 7.79169922 14.23970703 7.79169922 14.29296875 9.30078125 C14 12 14 12 12.64453125 13.83203125 C10.2991283 15.49776873 8.80983677 15.42147552 6 15 C4.5 13.625 4.5 13.625 3 12 C1.34183216 11.31246699 -0.32459336 10.64438717 -2 10 C-2.66 9.34 -3.32 8.68 -4 8 C-4 6.68 -4 5.36 -4 4 C-4.66 3.67 -5.32 3.34 -6 3 C-5.195625 2.690625 -4.39125 2.38125 -3.5625 2.0625 C-1.10919595 1.23664655 -1.10919595 1.23664655 0 0 Z " fill="#DBDAE2" transform="translate(113,147)"/>
<path d="M0 0 C2.475 0.495 2.475 0.495 5 1 C4.70703125 3.05078125 4.4140625 5.1015625 4.12109375 7.15234375 C4.08113281 7.76207031 4.04117188 8.37179688 4 9 C5.03406673 10.25949049 5.03406673 10.25949049 7.28515625 10.09765625 C8.20167969 10.08605469 9.11820313 10.07445312 10.0625 10.0625 C10.98160156 10.05347656 11.90070313 10.04445312 12.84765625 10.03515625 C13.55792969 10.02355469 14.26820313 10.01195312 15 10 C15.33 11.32 15.66 12.64 16 14 C14.22825181 13.91276622 12.45752623 13.80458345 10.6875 13.6875 C9.70136719 13.62949219 8.71523437 13.57148438 7.69921875 13.51171875 C4.66090695 12.93571463 3.73050754 12.52920333 2 10 C1.26953125 7.51953125 1.26953125 7.51953125 0.8125 4.8125 C0.65394531 3.91144531 0.49539062 3.01039062 0.33203125 2.08203125 C0.22246094 1.39496094 0.11289063 0.70789063 0 0 Z " fill="#C5C3D0" transform="translate(132,120)"/>
<path d="M0 0 C3.875 0.875 3.875 0.875 5 2 C7.53049402 2.07313567 10.03304837 2.09247527 12.5625 2.0625 C13.62887695 2.05573242 13.62887695 2.05573242 14.71679688 2.04882812 C16.47790013 2.03700864 18.23896036 2.01907263 20 2 C20.33 3.65 20.66 5.3 21 7 C5.95870709 6.78949845 5.95870709 6.78949845 2.0625 3.5 C0 1 0 1 0 0 Z " fill="#382863" transform="translate(130,135)"/>
<path d="M0 0 C1.670625 0.061875 1.670625 0.061875 3.375 0.125 C3.045 1.115 2.715 2.105 2.375 3.125 C1.385 3.125 0.395 3.125 -0.625 3.125 C-0.625 4.775 -0.625 6.425 -0.625 8.125 C-2.275 8.455 -3.925 8.785 -5.625 9.125 C-5.75 5.75 -5.75 5.75 -5.625 2.125 C-3.625 0.125 -3.625 0.125 0 0 Z " fill="#361E5E" transform="translate(145.625,146.875)"/>
<path d="M0 0 C3.0625 0.3125 3.0625 0.3125 4.7421875 1.4140625 C6.71425612 4.24964045 6.35109516 6.59646309 6.25 10 C6.22292969 11.17949219 6.19585937 12.35898438 6.16796875 13.57421875 C6.13316406 14.47785156 6.09835938 15.38148438 6.0625 16.3125 C5.4025 16.3125 4.7425 16.3125 4.0625 16.3125 C3.7325 12.0225 3.4025 7.7325 3.0625 3.3125 C1.4125 3.3125 -0.2375 3.3125 -1.9375 3.3125 C-2.5975 4.3025 -3.2575 5.2925 -3.9375 6.3125 C-4.5625 4.4375 -4.5625 4.4375 -4.9375 2.3125 C-2.9375 0.3125 -2.9375 0.3125 0 0 Z " fill="#C5C6D1" transform="translate(120.9375,114.6875)"/>
<path d="M0 0 C2.475 0.495 2.475 0.495 5 1 C5 2.65 5 4.3 5 6 C7.475 6.99 7.475 6.99 10 8 C10.042721 9.66611905 10.04063832 11.33382885 10 13 C9 14 9 14 6.4375 14.0625 C5.633125 14.041875 4.82875 14.02125 4 14 C4 13.34 4 12.68 4 12 C5.32 12 6.64 12 8 12 C7.24849977 8.72226496 7.24849977 8.72226496 4 7 C4 6.34 4 5.68 4 5 C3.34 5 2.68 5 2 5 C2 4.34 2 3.68 2 3 C1.34 3 0.68 3 0 3 C0 2.01 0 1.02 0 0 Z " fill="#4D4174" transform="translate(140,122)"/>
<path d="M0 0 C2.49361571 1.20381448 4.68143083 2.45428722 7 4 C9.96842658 4.45915507 9.96842658 4.45915507 13.1875 4.625 C14.27417969 4.69976562 15.36085937 4.77453125 16.48046875 4.8515625 C17.72763672 4.92503906 17.72763672 4.92503906 19 5 C18.67 5.66 18.34 6.32 18 7 C14.30950341 8.07905523 10.82114278 8.40959332 7 8 C4.05274786 6.11073581 1.97922372 3.87764268 0 1 C0 0.67 0 0.34 0 0 Z " fill="#C8C5D0" transform="translate(130,136)"/>
<path d="M0 0 C1.6875 2.1875 1.6875 2.1875 1.6875 4.1875 C1.0275 4.1875 0.3675 4.1875 -0.3125 4.1875 C-0.6425 3.5275 -0.9725 2.8675 -1.3125 2.1875 C-2.9625 2.1875 -4.6125 2.1875 -6.3125 2.1875 C-6.6425 3.5075 -6.9725 4.8275 -7.3125 6.1875 C-6.3225 6.8475 -5.3325 7.5075 -4.3125 8.1875 C-4.6425 9.1775 -4.9725 10.1675 -5.3125 11.1875 C-8.18648748 8.85238517 -9.23741816 7.81318199 -9.6875 4.0625 C-9.3125 1.1875 -9.3125 1.1875 -7.3125 -0.8125 C-3.89968491 -2.06985293 -2.93011346 -2.29657542 0 0 Z " fill="#D2D3DC" transform="translate(118.3125,120.8125)"/>
<path d="M0 0 C1.2065625 0.0309375 1.2065625 0.0309375 2.4375 0.0625 C2.81968767 1.71864657 3.15145102 3.38707024 3.4375 5.0625 C2.4375 6.0625 2.4375 6.0625 -0.125 6.125 C-1.3315625 6.0940625 -1.3315625 6.0940625 -2.5625 6.0625 C-2.94468767 4.40635343 -3.27645102 2.73792976 -3.5625 1.0625 C-2.5625 0.0625 -2.5625 0.0625 0 0 Z " fill="#28386D" transform="translate(95.5625,90.9375)"/>
<path d="M0 0 C1.2065625 0.0309375 1.2065625 0.0309375 2.4375 0.0625 C2.81968767 1.71864657 3.15145102 3.38707024 3.4375 5.0625 C2.4375 6.0625 2.4375 6.0625 -0.125 6.125 C-1.3315625 6.0940625 -1.3315625 6.0940625 -2.5625 6.0625 C-2.94468767 4.40635343 -3.27645102 2.73792976 -3.5625 1.0625 C-2.5625 0.0625 -2.5625 0.0625 0 0 Z " fill="#224070" transform="translate(72.5625,90.9375)"/>
<path d="M0 0 C0.66 0.33 1.32 0.66 2 1 C2.484375 2.99609375 2.484375 2.99609375 2.75 5.4375 C2.84796875 6.24058594 2.9459375 7.04367188 3.046875 7.87109375 C3 10 3 10 1 12 C-1.625 12.125 -1.625 12.125 -4 12 C-4 11.01 -4 10.02 -4 9 C-2.68 9 -1.36 9 0 9 C0 6.03 0 3.06 0 0 Z " fill="#362562" transform="translate(136,148)"/>
<path d="M0 0 C1.98 0 3.96 0 6 0 C6 1.65 6 3.3 6 5 C4.34385343 5.38218767 2.67542976 5.71395102 1 6 C0 5 0 5 -0.0625 2.4375 C-0.041875 1.633125 -0.02125 0.82875 0 0 Z " fill="#1E366A" transform="translate(81,91)"/>
<path d="M0 0 C0.99 0.33 1.98 0.66 3 1 C3.33 2.98 3.66 4.96 4 7 C2.35 6.67 0.7 6.34 -1 6 C-1 6.66 -1 7.32 -1 8 C-1.66 8 -2.32 8 -3 8 C-1.125 1.125 -1.125 1.125 0 0 Z " fill="#C4C1CF" transform="translate(119,136)"/>
<path d="M0 0 C1.32 0.33 2.64 0.66 4 1 C4.08226668 4.04386724 3.97608217 6.07175348 3 9 C3.99 9.66 4.98 10.32 6 11 C4.68 11 3.36 11 2 11 C1.67 11.66 1.34 12.32 1 13 C0.67 8.71 0.34 4.42 0 0 Z " fill="#413169" transform="translate(130,146)"/>
<path d="M0 0 C1.8871875 0.0309375 1.8871875 0.0309375 3.8125 0.0625 C4.1425 1.0525 4.4725 2.0425 4.8125 3.0625 C1.5125 3.3925 -1.7875 3.7225 -5.1875 4.0625 C-5.1875 3.4025 -5.1875 2.7425 -5.1875 2.0625 C-5.8475 1.7325 -6.5075 1.4025 -7.1875 1.0625 C-4.43671116 0.14557039 -2.82801087 -0.04636083 0 0 Z " fill="#4A3B6F" transform="translate(145.1875,142.9375)"/>
<path d="M0 0 C2 0 2 0 3.5 1.4375 C5.63378514 5.08271629 6.25091674 8.87563571 7 13 C5.68 13.33 4.36 13.66 3 14 C3 11.81160732 3.02780065 9.62005782 3.1875 7.4375 C2.95988959 4.4785647 2.16806159 3.89705389 0 2 C0 1.34 0 0.68 0 0 Z " fill="#CAC7D4" transform="translate(130,142)"/>
<path d="M0 0 C2.97 0 5.94 0 9 0 C9 0.99 9 1.98 9 3 C6.36 3 3.72 3 1 3 C0.67 2.01 0.34 1.02 0 0 Z " fill="#312562" transform="translate(135,133)"/>
<path d="M0 0 C0.33 0 0.66 0 1 0 C1.02578125 0.80824219 1.0515625 1.61648437 1.078125 2.44921875 C1.3552224 10.58214978 1.3552224 10.58214978 6 17 C3 17 3 17 1.32421875 15.421875 C-0.4284194 12.21646009 -0.29641079 9.88035978 -0.1875 6.25 C-0.16042969 5.07953125 -0.13335937 3.9090625 -0.10546875 2.703125 C-0.07066406 1.81109375 -0.03585938 0.9190625 0 0 Z " fill="#A8A2B9" transform="translate(130,119)"/>
<path d="M0 0 C0.33 0 0.66 0 1 0 C1 1.98 1 3.96 1 6 C1.66 6 2.32 6 3 6 C3.66 7.32 4.32 8.64 5 10 C3.02 10.33 1.04 10.66 -1 11 C-0.835 10.484375 -0.67 9.96875 -0.5 9.4375 C0.15049 6.26636124 0.0620734 3.22781666 0 0 Z " fill="#2E205D" transform="translate(127,136)"/>
<path d="M0 0 C0.66 0.99 1.32 1.98 2 3 C1.01 3.66 0.02 4.32 -1 5 C-2.20450304 7.55183404 -2.20450304 7.55183404 -3 10 C-3.66 9.34 -4.32 8.68 -5 8 C-4.625 5.375 -4.625 5.375 -4 3 C-3.01 2.67 -2.02 2.34 -1 2 C-0.67 1.34 -0.34 0.68 0 0 Z " fill="#C4C0CE" transform="translate(149,147)"/>
<path d="M0 0 C0.33 0.99 0.66 1.98 1 3 C0 4 0 4 -3.5625 4.0625 C-4.696875 4.041875 -5.83125 4.02125 -7 4 C-7 3.34 -7 2.68 -7 2 C-2.25 0 -2.25 0 0 0 Z " fill="#2C205E" transform="translate(144,127)"/>
<path d="M0 0 C0.33 0 0.66 0 1 0 C1 1.98 1 3.96 1 6 C0.34 6 -0.32 6 -1 6 C-0.67 7.32 -0.34 8.64 0 10 C-0.99 10 -1.98 10 -3 10 C-3 8.35 -3 6.7 -3 5 C-2.34 4.67 -1.68 4.34 -1 4 C-0.34786708 1.97536745 -0.34786708 1.97536745 0 0 Z " fill="#484272" transform="translate(138,119)"/>
<path d="M0 0 C2.475 0.495 2.475 0.495 5 1 C5 2.32 5 3.64 5 5 C4.01 5 3.02 5 2 5 C2 4.34 2 3.68 2 3 C1.34 3 0.68 3 0 3 C0 2.01 0 1.02 0 0 Z " fill="#3D366B" transform="translate(140,122)"/>
<path d="M0 0 C1.485 0.99 1.485 0.99 3 2 C5.50896686 2.45601261 5.50896686 2.45601261 8.1875 2.625 C9.08855469 2.69976562 9.98960938 2.77453125 10.91796875 2.8515625 C11.60503906 2.90054688 12.29210937 2.94953125 13 3 C13 3.33 13 3.66 13 4 C11.04233719 4.08082094 9.08373272 4.13910778 7.125 4.1875 C5.48917969 4.23970703 5.48917969 4.23970703 3.8203125 4.29296875 C2.88960938 4.19628906 1.95890625 4.09960938 1 4 C0.34 3.01 -0.32 2.02 -1 1 C-0.67 0.67 -0.34 0.34 0 0 Z " fill="#DCDDE4" transform="translate(63,170)"/>
<path d="M0 0 C2.31 0 4.62 0 7 0 C6.67 0.99 6.34 1.98 6 3 C5.01 3 4.02 3 3 3 C2.67 3.66 2.34 4.32 2 5 C2 3.68 2 2.36 2 1 C1.34 0.67 0.68 0.34 0 0 Z " fill="#46336C" transform="translate(142,147)"/>
<path d="M0 0 C1.65 0 3.3 0 5 0 C4.67 1.32 4.34 2.64 4 4 C2.68 3.67 1.36 3.34 0 3 C0 2.01 0 1.02 0 0 Z " fill="#B5B3C3" transform="translate(137,125)"/>
<path d="M0 0 C3.66881155 0.70554068 6.70450534 2.27735506 10 4 C8.02 4.99 8.02 4.99 6 6 C3.97945196 4.35830472 1.97956942 2.69088222 0 1 C0 0.67 0 0.34 0 0 Z " fill="#403167" transform="translate(130,135)"/>
</svg>
